<?xml version="1.0" encoding="UTF-8" standalone="no"?>
<!DOCTYPE svg PUBLIC "-//W3C//DTD SVG 1.1//EN" "http://www.w3.org/Graphics/SVG/1.1/DTD/svg11.dtd">
<svg width="100%" height="100%" viewBox="0 0 800 800" version="1.1" xmlns="http://www.w3.org/2000/svg" xmlns:xlink="http://www.w3.org/1999/xlink" xml:space="preserve" xmlns:serif="http://www.serif.com/" style="fill-rule:evenodd;clip-rule:evenodd;stroke-linejoin:round;stroke-miterlimit:2;">
    <g transform="matrix(2.83872,0,0,2.83872,2457.74,-10217.9)">
        <g id="Layer-1" serif:id="Layer 1">
            <g id="g1898">
                <g id="g1882">
                    <path id="path1290" d="M-655.313,3740.39L-583.974,3818.79C-591.814,3826.89 -602.789,3831.86 -614.812,3831.86C-627.616,3831.86 -638.852,3826.37 -646.692,3817.74L-686.15,3774.37L-716.987,3740.39L-686.15,3706.68L-646.692,3663.3C-638.852,3654.68 -627.616,3649.19 -614.812,3649.19C-602.789,3649.19 -591.814,3654.15 -583.974,3661.99L-655.313,3740.39Z" style="fill:rgb(229,112,0);fill-rule:nonzero;"/>
                    <path id="path1292" d="M-794.451,3740.39L-865.791,3818.79C-857.951,3826.89 -846.976,3831.85 -834.952,3831.85C-822.149,3831.85 -810.913,3826.37 -803.073,3817.74L-763.615,3774.36L-732.778,3740.39L-763.615,3706.68L-803.073,3663.3C-810.913,3654.68 -822.149,3649.19 -834.952,3649.19C-846.976,3649.19 -857.951,3654.15 -865.791,3661.99L-794.451,3740.39Z" style="fill:rgb(229,112,0);fill-rule:nonzero;"/>
                    <path id="path1294" d="M-696.772,3779.26L-724.917,3748.25L-753.064,3779.26L-818.18,3850.82C-811.025,3857.97 -801.004,3862.51 -790.036,3862.51C-778.348,3862.51 -768.567,3857.74 -761.174,3849.63L-724.917,3810.03L-688.903,3849.63C-681.747,3857.49 -671.492,3862.51 -659.806,3862.51C-648.832,3862.51 -638.814,3857.97 -631.658,3850.82L-696.772,3779.26Z" style="fill-rule:nonzero;"/>
                    <path id="path1296" d="M-696.774,3701.51L-724.919,3732.52L-753.066,3701.51L-818.181,3629.96C-811.026,3622.8 -801.006,3618.27 -790.038,3618.27C-778.35,3618.27 -768.569,3623.04 -761.176,3631.15L-724.919,3670.74L-688.905,3631.15C-681.748,3623.28 -671.494,3618.27 -659.807,3618.27C-648.833,3618.27 -638.815,3622.8 -631.66,3629.96L-696.774,3701.51Z" style="fill-rule:nonzero;"/>
                </g>
            </g>
        </g>
    </g>
</svg>
